<svg width="40" height="40" viewBox="0 0 40 40" fill="none" xmlns="http://www.w3.org/2000/svg">
<g clip-path="url(#clip0_1_142)" filter="url(#filter0_d_1_142)">
<rect width="32" height="32" transform="translate(36 32) rotate(-180)" fill="#BFBFBF"/>
<path d="M36 4L32 4L36 0L36 4Z" fill="#818181"/>
<path d="M36 28L32 28L36 32L36 28Z" fill="#818181"/>
<rect x="36" y="28" width="4" height="24" transform="rotate(-180 36 28)" fill="#818181"/>
<path d="M32 32L32 28L36 32L32 32Z" fill="#818181"/>
<path d="M8 32L8 28L4 32L8 32Z" fill="#818181"/>
<rect x="8" y="32" width="4" height="24" transform="rotate(-90 8 32)" fill="#818181"/>
<path d="M4 28L8 28L4 32L4 28Z" fill="white"/>
<path d="M4 4L8 4L4 0L4 4Z" fill="white"/>
<rect x="4" y="4" width="4" height="24" fill="white"/>
<path d="M8 0L8 4L4 -3.00516e-07L8 0Z" fill="white"/>
<path d="M32 0L32 4L36 3.00516e-07L32 0Z" fill="white"/>
<rect x="32" width="4" height="24" transform="rotate(90 32 0)" fill="white"/>
</g>
<defs>
<filter id="filter0_d_1_142" x="0" y="0" width="40" height="40" filterUnits="userSpaceOnUse" color-interpolation-filters="sRGB">
<feFlood flood-opacity="0" result="BackgroundImageFix"/>
<feColorMatrix in="SourceAlpha" type="matrix" values="0 0 0 0 0 0 0 0 0 0 0 0 0 0 0 0 0 0 127 0" result="hardAlpha"/>
<feOffset dy="4"/>
<feGaussianBlur stdDeviation="2"/>
<feComposite in2="hardAlpha" operator="out"/>
<feColorMatrix type="matrix" values="0 0 0 0 0 0 0 0 0 0 0 0 0 0 0 0 0 0 0.25 0"/>
<feBlend mode="normal" in2="BackgroundImageFix" result="effect1_dropShadow_1_142"/>
<feBlend mode="normal" in="SourceGraphic" in2="effect1_dropShadow_1_142" result="shape"/>
</filter>
<clipPath id="clip0_1_142">
<rect width="32" height="32" fill="white" transform="translate(4)"/>
</clipPath>
</defs>
</svg>
